# xmcd
#
# Track frame offsets:
#	150
#	11912
#	24469
#	34311
#	44727
#	56900
#	67490
#	79549
#	93033
#	105100
#	116893
#	129317
#	140025
#	151730
#	169318
#	179019
#	186645
#	198640
#	210976
#	221331
#	233330
#	244347
#	255629
#	265888
#	278049
#
# Disc length: 3869 seconds
#
# Revision: 0
# Processed by: cddbd v1.5.2PL0 Copyright (c) Steve Scherf et al.
# Submitted via: EasyCDDAExtractor 9.0.0.1
#
DISCID=740f1b19
DTITLE=The Pied Pipers - Good Deal, MacNeil
DYEAR=2005
DGENRE=Acapella
TTITLE0=Doin' What Comes Naturally
TTITLE1=Easy Street
TTITLE2=Gotta Be This Or That
TTITLE3=I'll Buy That Dream
TTITLE4=In The Middle Of May
TTITLE5=It's A Paper Moon
TTITLE6=I've Got The Sun In The Morning
TTITLE7=Just A Sittin'  And A Rockin' 
TTITLE8=Linger In My Arms A Little Longer
TTITLE9=My Gal Sal
TTITLE10=My Sugar Is So Refined
TTITLE11=Ragtime Cowboy Joe
TTITLE12=Route 66
TTITLE13=Sentimental Journey
TTITLE14=Tampico
TTITLE15=There's A Boat That's Leaving Soon for New York
TTITLE16=There's Good Blues Tonight
TTITLE17=What A Deal
TTITLE18=What Ya Gonna Do?
TTITLE19=Why Does It Get So Late So Early?
TTITLE20=You Won't Be Satisfied
TTITLE21=Aren't You Glad Your You
TTITLE22=Come Rain Or Come Shine
TTITLE23=Come To Baby, Do
TTITLE24=Doctor, Lawyer, Indian Chief
EXTD=
EXTT0=
EXTT1=
EXTT2=
EXTT3=
EXTT4=
EXTT5=
EXTT6=
EXTT7=
EXTT8=
EXTT9=
EXTT10=
EXTT11=
EXTT12=
EXTT13=
EXTT14=
EXTT15=
EXTT16=
EXTT17=
EXTT18=
EXTT19=
EXTT20=
EXTT21=
EXTT22=
EXTT23=
EXTT24=
PLAYORDER=
